<mxfile host="app.diagrams.net" agent="Mozilla/5.0 (Windows NT 10.0; Win64; x64) AppleWebKit/537.36 (KHTML, like Gecko) Chrome/139.0.0.0 Safari/537.36 Edg/139.0.0.0" version="27.1.4">
  <diagram name="第 1 页" id="KmN8K9YmExcZPQwIQy3-">
    <mxGraphModel dx="1418" dy="764" grid="1" gridSize="10" guides="1" tooltips="1" connect="1" arrows="1" fold="1" page="1" pageScale="1" pageWidth="1169" pageHeight="827" math="0" shadow="0">
      <root>
        <mxCell id="0" />
        <mxCell id="1" parent="0" />
        <mxCell id="v0Usc0qorc1WFPTInyE--32" style="edgeStyle=orthogonalEdgeStyle;rounded=0;orthogonalLoop=1;jettySize=auto;html=1;exitX=0.25;exitY=0;exitDx=0;exitDy=0;entryX=0;entryY=0.5;entryDx=0;entryDy=0;fillColor=#e51400;strokeColor=#B20000;" edge="1" parent="1" source="v0Usc0qorc1WFPTInyE--1" target="v0Usc0qorc1WFPTInyE--5">
          <mxGeometry relative="1" as="geometry">
            <Array as="points">
              <mxPoint x="555" y="130" />
              <mxPoint x="210" y="130" />
              <mxPoint x="210" y="245" />
            </Array>
          </mxGeometry>
        </mxCell>
        <mxCell id="v0Usc0qorc1WFPTInyE--33" style="edgeStyle=orthogonalEdgeStyle;rounded=0;orthogonalLoop=1;jettySize=auto;html=1;exitX=0.25;exitY=0;exitDx=0;exitDy=0;entryX=0;entryY=0.5;entryDx=0;entryDy=0;fillColor=#e51400;strokeColor=#B20000;" edge="1" parent="1" source="v0Usc0qorc1WFPTInyE--1" target="v0Usc0qorc1WFPTInyE--6">
          <mxGeometry relative="1" as="geometry">
            <Array as="points">
              <mxPoint x="555" y="130" />
              <mxPoint x="210" y="130" />
              <mxPoint x="210" y="295" />
            </Array>
          </mxGeometry>
        </mxCell>
        <mxCell id="v0Usc0qorc1WFPTInyE--34" style="edgeStyle=orthogonalEdgeStyle;rounded=0;orthogonalLoop=1;jettySize=auto;html=1;exitX=0.25;exitY=0;exitDx=0;exitDy=0;entryX=0;entryY=0.5;entryDx=0;entryDy=0;fillColor=#e51400;strokeColor=#B20000;" edge="1" parent="1" source="v0Usc0qorc1WFPTInyE--1" target="v0Usc0qorc1WFPTInyE--11">
          <mxGeometry relative="1" as="geometry">
            <Array as="points">
              <mxPoint x="555" y="130" />
              <mxPoint x="210" y="130" />
              <mxPoint x="210" y="365" />
            </Array>
          </mxGeometry>
        </mxCell>
        <mxCell id="v0Usc0qorc1WFPTInyE--35" style="edgeStyle=orthogonalEdgeStyle;rounded=0;orthogonalLoop=1;jettySize=auto;html=1;exitX=0.25;exitY=0;exitDx=0;exitDy=0;entryX=0;entryY=0.5;entryDx=0;entryDy=0;fillColor=#e51400;strokeColor=#B20000;" edge="1" parent="1" source="v0Usc0qorc1WFPTInyE--1" target="v0Usc0qorc1WFPTInyE--12">
          <mxGeometry relative="1" as="geometry">
            <Array as="points">
              <mxPoint x="555" y="130" />
              <mxPoint x="210" y="130" />
              <mxPoint x="210" y="414" />
            </Array>
          </mxGeometry>
        </mxCell>
        <mxCell id="v0Usc0qorc1WFPTInyE--1" value="Smart Pump&lt;div&gt;主控板&lt;/div&gt;" style="rounded=0;whiteSpace=wrap;html=1;" vertex="1" parent="1">
          <mxGeometry x="510" y="150" width="180" height="320" as="geometry" />
        </mxCell>
        <mxCell id="v0Usc0qorc1WFPTInyE--2" value="压力传感器&lt;div&gt;0-10V&lt;/div&gt;" style="rounded=0;whiteSpace=wrap;html=1;" vertex="1" parent="1">
          <mxGeometry x="300" y="180" width="100" height="30" as="geometry" />
        </mxCell>
        <mxCell id="v0Usc0qorc1WFPTInyE--5" value="压力传感器&lt;div&gt;0-10V&lt;/div&gt;" style="rounded=0;whiteSpace=wrap;html=1;" vertex="1" parent="1">
          <mxGeometry x="300" y="230" width="100" height="30" as="geometry" />
        </mxCell>
        <mxCell id="v0Usc0qorc1WFPTInyE--6" value="预留通道&lt;div&gt;&lt;span style=&quot;background-color: transparent; color: light-dark(rgb(0, 0, 0), rgb(255, 255, 255));&quot;&gt;4-20mA&lt;/span&gt;&lt;/div&gt;" style="rounded=0;whiteSpace=wrap;html=1;" vertex="1" parent="1">
          <mxGeometry x="300" y="280" width="100" height="30" as="geometry" />
        </mxCell>
        <mxCell id="v0Usc0qorc1WFPTInyE--7" value="" style="endArrow=classic;html=1;rounded=0;exitX=1;exitY=0.5;exitDx=0;exitDy=0;startArrow=none;startFill=0;endFill=1;" edge="1" parent="1" source="v0Usc0qorc1WFPTInyE--2">
          <mxGeometry width="50" height="50" relative="1" as="geometry">
            <mxPoint x="420" y="200" as="sourcePoint" />
            <mxPoint x="508" y="194" as="targetPoint" />
          </mxGeometry>
        </mxCell>
        <mxCell id="v0Usc0qorc1WFPTInyE--26" value="0-10V" style="edgeLabel;html=1;align=center;verticalAlign=middle;resizable=0;points=[];" vertex="1" connectable="0" parent="v0Usc0qorc1WFPTInyE--7">
          <mxGeometry x="-0.0555" y="1" relative="1" as="geometry">
            <mxPoint as="offset" />
          </mxGeometry>
        </mxCell>
        <mxCell id="v0Usc0qorc1WFPTInyE--8" value="" style="endArrow=none;html=1;rounded=0;exitX=1;exitY=0.5;exitDx=0;exitDy=0;" edge="1" parent="1">
          <mxGeometry width="50" height="50" relative="1" as="geometry">
            <mxPoint x="402" y="245.5" as="sourcePoint" />
            <mxPoint x="510" y="244.5" as="targetPoint" />
          </mxGeometry>
        </mxCell>
        <mxCell id="v0Usc0qorc1WFPTInyE--9" value="" style="endArrow=none;html=1;rounded=0;exitX=1;exitY=0.5;exitDx=0;exitDy=0;" edge="1" parent="1">
          <mxGeometry width="50" height="50" relative="1" as="geometry">
            <mxPoint x="402" y="295.5" as="sourcePoint" />
            <mxPoint x="510" y="294.5" as="targetPoint" />
          </mxGeometry>
        </mxCell>
        <mxCell id="v0Usc0qorc1WFPTInyE--10" value="0.24W" style="text;html=1;align=center;verticalAlign=middle;whiteSpace=wrap;rounded=0;" vertex="1" parent="1">
          <mxGeometry x="240" y="180" width="60" height="30" as="geometry" />
        </mxCell>
        <mxCell id="v0Usc0qorc1WFPTInyE--11" value="电磁阀1&lt;div&gt;24V，20W&lt;/div&gt;" style="rounded=0;whiteSpace=wrap;html=1;" vertex="1" parent="1">
          <mxGeometry x="300" y="350" width="100" height="30" as="geometry" />
        </mxCell>
        <mxCell id="v0Usc0qorc1WFPTInyE--12" value="电磁阀2&lt;div&gt;24V，20W&lt;/div&gt;" style="rounded=0;whiteSpace=wrap;html=1;" vertex="1" parent="1">
          <mxGeometry x="300" y="399" width="100" height="30" as="geometry" />
        </mxCell>
        <mxCell id="v0Usc0qorc1WFPTInyE--13" value="" style="endArrow=none;html=1;rounded=0;exitX=1;exitY=0.5;exitDx=0;exitDy=0;" edge="1" parent="1">
          <mxGeometry width="50" height="50" relative="1" as="geometry">
            <mxPoint x="402" y="365.5" as="sourcePoint" />
            <mxPoint x="510" y="364.5" as="targetPoint" />
          </mxGeometry>
        </mxCell>
        <mxCell id="v0Usc0qorc1WFPTInyE--14" value="" style="endArrow=none;html=1;rounded=0;exitX=1;exitY=0.5;exitDx=0;exitDy=0;" edge="1" parent="1">
          <mxGeometry width="50" height="50" relative="1" as="geometry">
            <mxPoint x="402" y="414" as="sourcePoint" />
            <mxPoint x="510" y="413" as="targetPoint" />
          </mxGeometry>
        </mxCell>
        <mxCell id="v0Usc0qorc1WFPTInyE--15" value="一体化伺服电机" style="rounded=0;whiteSpace=wrap;html=1;" vertex="1" parent="1">
          <mxGeometry x="780" y="180" width="100" height="30" as="geometry" />
        </mxCell>
        <mxCell id="v0Usc0qorc1WFPTInyE--18" value="" style="endArrow=classic;startArrow=classic;html=1;rounded=0;exitX=1.017;exitY=0.141;exitDx=0;exitDy=0;exitPerimeter=0;entryX=0;entryY=0.5;entryDx=0;entryDy=0;" edge="1" parent="1" source="v0Usc0qorc1WFPTInyE--1" target="v0Usc0qorc1WFPTInyE--15">
          <mxGeometry width="50" height="50" relative="1" as="geometry">
            <mxPoint x="720" y="220" as="sourcePoint" />
            <mxPoint x="770" y="170" as="targetPoint" />
          </mxGeometry>
        </mxCell>
        <mxCell id="v0Usc0qorc1WFPTInyE--20" value="RS485" style="edgeLabel;html=1;align=center;verticalAlign=middle;resizable=0;points=[];" vertex="1" connectable="0" parent="v0Usc0qorc1WFPTInyE--18">
          <mxGeometry x="0.2409" relative="1" as="geometry">
            <mxPoint as="offset" />
          </mxGeometry>
        </mxCell>
        <mxCell id="v0Usc0qorc1WFPTInyE--19" value="无线遥控手柄" style="rounded=0;whiteSpace=wrap;html=1;" vertex="1" parent="1">
          <mxGeometry x="780" y="240" width="100" height="30" as="geometry" />
        </mxCell>
        <mxCell id="v0Usc0qorc1WFPTInyE--21" style="edgeStyle=orthogonalEdgeStyle;rounded=0;orthogonalLoop=1;jettySize=auto;html=1;exitX=0;exitY=0.5;exitDx=0;exitDy=0;entryX=1.011;entryY=0.328;entryDx=0;entryDy=0;entryPerimeter=0;startArrow=classic;startFill=1;" edge="1" parent="1" source="v0Usc0qorc1WFPTInyE--19" target="v0Usc0qorc1WFPTInyE--1">
          <mxGeometry relative="1" as="geometry" />
        </mxCell>
        <mxCell id="v0Usc0qorc1WFPTInyE--23" value="WIFI" style="edgeLabel;html=1;align=center;verticalAlign=middle;resizable=0;points=[];" vertex="1" connectable="0" parent="v0Usc0qorc1WFPTInyE--21">
          <mxGeometry x="-0.0911" y="1" relative="1" as="geometry">
            <mxPoint as="offset" />
          </mxGeometry>
        </mxCell>
        <mxCell id="v0Usc0qorc1WFPTInyE--25" style="edgeStyle=orthogonalEdgeStyle;rounded=0;orthogonalLoop=1;jettySize=auto;html=1;exitX=0.5;exitY=1;exitDx=0;exitDy=0;entryX=0.5;entryY=0;entryDx=0;entryDy=0;" edge="1" parent="1" source="v0Usc0qorc1WFPTInyE--24" target="v0Usc0qorc1WFPTInyE--1">
          <mxGeometry relative="1" as="geometry" />
        </mxCell>
        <mxCell id="v0Usc0qorc1WFPTInyE--24" value="电池&lt;div&gt;48.2-54.6V&lt;/div&gt;" style="rounded=0;whiteSpace=wrap;html=1;" vertex="1" parent="1">
          <mxGeometry x="550" y="60" width="100" height="30" as="geometry" />
        </mxCell>
        <mxCell id="v0Usc0qorc1WFPTInyE--28" style="edgeStyle=orthogonalEdgeStyle;rounded=0;orthogonalLoop=1;jettySize=auto;html=1;exitX=0.25;exitY=0;exitDx=0;exitDy=0;entryX=0.5;entryY=0;entryDx=0;entryDy=0;fillColor=#e51400;strokeColor=#B20000;" edge="1" parent="1" source="v0Usc0qorc1WFPTInyE--1" target="v0Usc0qorc1WFPTInyE--2">
          <mxGeometry relative="1" as="geometry" />
        </mxCell>
        <mxCell id="v0Usc0qorc1WFPTInyE--29" value="Text" style="edgeLabel;html=1;align=center;verticalAlign=middle;resizable=0;points=[];" vertex="1" connectable="0" parent="v0Usc0qorc1WFPTInyE--28">
          <mxGeometry x="0.1273" y="-1" relative="1" as="geometry">
            <mxPoint as="offset" />
          </mxGeometry>
        </mxCell>
      </root>
    </mxGraphModel>
  </diagram>
</mxfile>
